4OFF
16 24 32 8
-1 -1 -1 -1
-1 -1 -1 1
-1 -1 1 -1
-1 -1 1 1
-1 1 -1 -1
-1 1 -1 1
-1 1 1 -1
-1 1 1 1
1 -1 -1 -1
1 -1 -1 1
1 -1 1 -1
1 -1 1 1
1 1 -1 -1
1 1 -1 1
1 1 1 -1
1 1 1 1
4 0 2 3 1
4 4 6 7 5
4 8 10 11 9
4 12 14 15 13
4 0 4 5 1
4 2 6 7 3
4 8 12 13 9
4 10 14 15 11
4 0 4 6 2
4 1 5 7 3
4 8 12 14 10
4 9 13 15 11
4 0 8 9 1
4 2 10 11 3
4 4 12 13 5
4 6 14 15 7
4 0 8 10 2
4 1 9 11 3
4 4 12 14 6
4 5 13 15 7
4 0 8 12 4
4 1 9 13 5
4 2 10 14 6
4 3 11 15 7
6 0 1 4 5 8 9
6 2 3 6 7 10 11
6 0 2 12 13 16 17
6 1 3 14 15 18 19
6 4 6 12 14 20 21
6 5 7 13 15 22 23
6 8 10 16 18 20 22
6 9 11 17 19 21 23
